<svg width="209.05625px" height="107.6px" xmlns="http://www.w3.org/2000/svg" viewBox="145.471875 21.200000000000003 209.05625 107.6" style="background: rgb(255, 255, 255);" preserveAspectRatio="xMidYMid"><defs><linearGradient id="editing-outline-gradient" x1="-0.5" x2="1.5" y1="0.5" y2="0.5"><stop offset="0" stop-color="#000000"></stop><stop offset="1" stop-color="#000000"></stop></linearGradient><filter id="editing-outline" x="-100%" y="-100%" width="300%" height="300%"><feMorphology in="SourceGraphic" operator="dilate" radius="4" result="outline"></feMorphology><feComposite operator="out" in="outline" in2="SourceAlpha"></feComposite></filter></defs><g filter="url(#editing-outline)"><g transform="translate(180.8238284289837, 91.79000091552734)"><path d="M8.77-28.25L8.77-28.25L9.46-28.25L9.46-28.25Q16.47-28.25 18.45-23.18L18.45-23.18L18.58-21.80L18.58-21.37L18.58-21.37Q18.58-16.38 12.51-12.13L12.51-12.13L12.51-12.13Q11.05-11.70 11.05-11.18L11.05-11.18L11.05-11.18Q12.77-4.60 12.77-0.43L12.77-0.43L12.77 0.13L12.77 0.13Q12.77 1.85 11.35 1.85L11.35 1.85L11.35 1.85Q10.28 1.72 10.28 0.77L10.28 0.77L10.28-0.30L10.28-0.30Q10.28-5.25 8.47-11.05L8.47-11.05L8.47-11.05Q4.99-11.35 4.60-12.94L4.60-12.94L4.60-13.20L4.60-13.20Q4.60-13.98 5.81-14.41L5.81-14.41L7.70-13.76L7.70-13.85L7.70-13.85Q6.24-20.21 6.24-22.45L6.24-22.45L6.24-22.45Q6.24-23.69 7.70-23.69L7.70-23.69L7.70-23.69Q9.03-23.69 9.03-19.14L9.03-19.14L10.28-14.02L10.28-14.02Q13.37-15.05 15.09-18.06L15.09-18.06L15.09-18.06Q16.00-19.78 16.00-21.11L16.00-21.11L16.00-21.67L16.00-21.67Q16.00-25.20 9.98-25.67L9.98-25.67L8.21-25.67L8.21-25.67Q2.32-25.03 2.32-22.88L2.32-22.88L2.32-22.62L2.32-22.62Q2.32-21.97 3.01-20.60L3.01-20.60L3.01-20.60Q3.01-19.65 1.51-19.39L1.51-19.39L1.51-19.39Q-0.22-20.21-0.22-22.75L-0.22-22.75L-0.22-22.75Q-0.22-27.48 8.77-28.25ZM22.40-23.82L22.40-23.82L22.40-23.82Q23.44-23.82 23.74-22.75L23.74-22.75L23.48-20.21L23.48-19.39L23.48-19.39Q24.55-10.49 24.81-5.55L24.81-5.55L24.81-5.55Q25.28-0.95 25.80-0.95L25.80-0.95L25.80-0.95Q25.80-0.04 24.30 0.22L24.30 0.22L24.30 0.22Q22.15 0.22 22.15-8.47L22.15-8.47L20.94-19.65L20.94-20.04L20.94-20.04Q20.94-23.82 22.40-23.82ZM31.65-19.95L32.98-19.95L42.01-20.21L42.91-20.21L42.91-20.21Q45.49-20.21 45.49-18.75L45.49-18.75L45.49-18.75Q44.63-14.79 38.23-7.48L38.23-7.48L38.23-7.48Q34.49-3.91 34.49-3.53L34.49-3.53L34.49-3.53Q41.02 2.37 42.40 2.49L42.40 2.49L44.42 2.75L44.42 2.75Q46.01 2.75 47.64 2.11L47.64 2.11L47.64 2.11Q48.85 2.54 48.85 3.44L48.85 3.44L48.85 3.44Q48.85 5.03 44.55 5.33L44.55 5.33L43.99 5.33L43.99 5.33Q39.99 5.33 33.50-1.29L33.50-1.29L32.16-2.11L32.16-2.11Q29.76-0.73 29.20-0.73L29.20-0.73L29.20-0.73Q28.25-0.73 28.04-2.11L28.04-2.11L28.04-2.11Q28.04-4.30 31.09-5.03L31.09-5.03L31.65-4.90L31.65-4.90Q37.24-9.42 40.94-14.71L40.94-14.71L40.94-14.71Q42.40-17.11 42.40-17.67L42.40-17.67L42.01-17.67L32.98-17.42L32.85-17.24L32.72-17.24L32.72-17.24Q30.19-17.24 30.19-18.58L30.19-18.58L30.19-18.75L30.19-18.75Q30.19-19.95 31.65-19.95L31.65-19.95ZM51.86-19.95L53.19-19.95L62.22-20.21L63.12-20.21L63.12-20.21Q65.70-20.21 65.70-18.75L65.70-18.75L65.70-18.75Q64.84-14.79 58.44-7.48L58.44-7.48L58.44-7.48Q54.70-3.91 54.70-3.53L54.70-3.53L54.70-3.53Q61.23 2.37 62.61 2.49L62.61 2.49L64.63 2.75L64.63 2.75Q66.22 2.75 67.85 2.11L67.85 2.11L67.85 2.11Q69.06 2.54 69.06 3.44L69.06 3.44L69.06 3.44Q69.06 5.03 64.76 5.33L64.76 5.33L64.20 5.33L64.20 5.33Q60.20 5.33 53.71-1.29L53.71-1.29L52.37-2.11L52.37-2.11Q49.97-0.73 49.41-0.73L49.41-0.73L49.41-0.73Q48.46-0.73 48.25-2.11L48.25-2.11L48.25-2.11Q48.25-4.30 51.30-5.03L51.30-5.03L51.86-4.90L51.86-4.90Q57.45-9.42 61.15-14.71L61.15-14.71L61.15-14.71Q62.61-17.11 62.61-17.67L62.61-17.67L62.22-17.67L53.19-17.42L53.06-17.24L52.93-17.24L52.93-17.24Q50.40-17.24 50.40-18.58L50.40-18.58L50.40-18.75L50.40-18.75Q50.40-19.95 51.86-19.95L51.86-19.95ZM77.36-25.54L77.36-25.54L78.43-25.89L78.43-25.89Q79.89-25.89 79.89-22.02L79.89-22.02L81.23-12.08L81.40-11.91L86.34-13.72L86.34-13.72Q87.33-13.72 87.42-12.21L87.42-12.21L87.42-12.21Q87.42-11.09 81.96-9.50L81.96-9.50L81.79-9.42L81.79-9.25L81.79-9.25Q81.79-8.34 84.62 0.17L84.62 0.17L84.62 0.26L84.62 0.26Q84.62 1.08 83.29 1.63L83.29 1.63L83.29 1.63Q82.04 1.63 81.66-1.33L81.66-1.33L81.66-1.33Q80.67-3.48 79.25-8.43L79.25-8.43L79.08-8.43L79.08-8.43Q73.44-7.27 73.44-6.45L73.44-6.45L73.44-6.45Q70.35 0.26 68.76 0.26L68.76 0.26L68.76 0.26Q67.85 0.26 67.68-0.90L67.68-0.90L67.68-0.90Q67.68-1.94 69.96-4.95L69.96-4.95L70.65-6.45L69.57-6.45L68.76-6.28L68.76-6.28Q67.17-6.67 67.17-7.91L67.17-7.91L67.17-7.91Q67.81-9.42 69.06-9.42L69.06-9.42L70.13-8.99L70.13-8.99Q72.54-8.99 72.54-10.75L72.54-10.75L72.54-10.75Q74.73-15.91 77.36-25.54ZM77.74-17.72L77.74-17.72L75.21-10.06L75.21-10.06Q78.73-10.75 78.73-11.40L78.73-11.40L78.73-11.40Q78.09-17.72 77.74-17.72ZM96.06-24.47L96.06-24.47L96.23-24.47L96.23-24.47Q101.44-23.52 101.44-19.44L101.44-19.44L101.44-18.66L101.44-18.66Q101.44-14.15 95.68-9.68L95.68-9.68L95.68-9.50L95.68-9.50Q105.01-1.16 108.58-1.16L108.58-1.16L108.58-1.16Q109.22-0.69 109.22 0L109.22 0L109.22 0Q109.22 0.99 107.76 1.25L107.76 1.25L107.76 1.25Q104.19 1.25 94.43-7.35L94.43-7.35L92.58-8.34L92.45-8.34L92.45-8.34Q93.65-3.53 93.65-0.90L93.65-0.90L93.65-0.90Q93.65 0.22 92.28 0.69L92.28 0.69L92.28 0.69Q90.30 0.69 89.78-8.99L89.78-8.99L89.78-8.99Q88.41-13.46 88.41-16.13L88.41-16.13L88.41-16.51L88.41-16.51Q88.41-20.43 90.13-20.43L90.13-20.43L90.95-20.00L91.20-20.00L91.20-20.00Q93.27-24.47 96.06-24.47ZM92.58-12.99L92.58-12.99L92.45-11.40L92.45-11.40Q96.45-11.40 98.90-18.02L98.90-18.02L98.90-19.61L98.90-19.61Q98.90-21.50 96.32-21.89L96.32-21.89L96.06-21.89L96.06-21.89Q93.35-21.89 92.58-12.99ZM113.09-23.82L113.09-23.82L113.09-23.82Q114.12-23.82 114.42-22.75L114.42-22.75L114.17-20.21L114.17-19.39L114.17-19.39Q115.24-10.49 115.50-5.55L115.50-5.55L115.50-5.55Q115.97-0.95 116.49-0.95L116.49-0.95L116.49-0.95Q116.49-0.04 114.98 0.22L114.98 0.22L114.98 0.22Q112.83 0.22 112.83-8.47L112.83-8.47L111.63-19.65L111.63-20.04L111.63-20.04Q111.63-23.82 113.09-23.82ZM127.62-25.54L127.62-25.54L128.70-25.89L128.70-25.89Q130.16-25.89 130.16-22.02L130.16-22.02L131.49-12.08L131.67-11.91L136.61-13.72L136.61-13.72Q137.60-13.72 137.69-12.21L137.69-12.21L137.69-12.21Q137.69-11.09 132.23-9.50L132.23-9.50L132.05-9.42L132.05-9.25L132.05-9.25Q132.05-8.34 134.89 0.17L134.89 0.17L134.89 0.26L134.89 0.26Q134.89 1.08 133.56 1.63L133.56 1.63L133.56 1.63Q132.31 1.63 131.92-1.33L131.92-1.33L131.92-1.33Q130.94-3.48 129.52-8.43L129.52-8.43L129.34-8.43L129.34-8.43Q123.71-7.27 123.71-6.45L123.71-6.45L123.71-6.45Q120.62 0.26 119.02 0.26L119.02 0.26L119.02 0.26Q118.12 0.26 117.95-0.90L117.95-0.90L117.95-0.90Q117.95-1.94 120.23-4.95L120.23-4.95L120.92-6.45L119.84-6.45L119.02-6.28L119.02-6.28Q117.43-6.67 117.43-7.91L117.43-7.91L117.43-7.91Q118.08-9.42 119.33-9.42L119.33-9.42L120.40-8.99L120.40-8.99Q122.81-8.99 122.81-10.75L122.81-10.75L122.81-10.75Q125.00-15.91 127.62-25.54ZM128.01-17.72L128.01-17.72L125.47-10.06L125.47-10.06Q129-10.75 129-11.40L129-11.40L129-11.40Q128.36-17.72 128.01-17.72Z" fill="url(#editing-outline-gradient)"></path></g></g><style>text {
  font-size: 64px;
  font-family: Arial Black;
  dominant-baseline: central;
  text-anchor: middle;
}</style></svg>