<svg width="196.008447265625px" height="82.4px" xmlns="http://www.w3.org/2000/svg" viewBox="151.9957763671875 33.8 196.008447265625 82.4" style="background: rgb(255, 255, 255);" preserveAspectRatio="xMidYMid"><defs><linearGradient id="editing-outline-gradient" x1="-0.5" x2="1.5" y1="0.5" y2="0.5"><stop offset="0" stop-color="#000000"></stop><stop offset="1" stop-color="#000000"></stop></linearGradient><filter id="editing-outline" x="-100%" y="-100%" width="300%" height="300%"><feMorphology in="SourceGraphic" operator="dilate" radius="4" result="outline"></feMorphology><feComposite operator="out" in="outline" in2="SourceAlpha"></feComposite></filter></defs><g filter="url(#editing-outline)"><g transform="translate(186.34372985363007, 90.95000076293945)"><path d="M7.31-1.42L-0.13 0.04L-0.13 0.04Q1.16-5.76 2.32-11.31L2.32-11.31L2.32-11.31Q2.80-13.63 3.31-16.21L3.31-16.21L3.31-16.21Q3.83-18.79 4.30-21.29L4.30-21.29L4.30-21.29Q4.77-23.78 5.20-26.10L5.20-26.10L5.20-26.10Q5.63-28.42 5.93-30.36L5.93-30.36L5.93-30.36Q7.18-30.75 8.39-31.02L8.39-31.02L8.39-31.02Q9.59-31.30 10.86-31.52L10.86-31.52L10.86-31.52Q12.13-31.73 13.24-31.73L13.24-31.73L13.24-31.73Q15.18-31.73 16.49-31.09L16.49-31.09L16.49-31.09Q17.80-30.44 18.62-29.35L18.62-29.35L18.62-29.35Q19.44-28.25 19.78-26.79L19.78-26.79L19.78-26.79Q20.12-25.33 20.12-23.65L20.12-23.65L20.12-23.65Q20.12-21.24 19.24-19.01L19.24-19.01L19.24-19.01Q18.36-16.77 16.88-15.03L16.88-15.03L16.88-15.03Q15.39-13.29 13.48-12.26L13.48-12.26L13.48-12.26Q11.57-11.22 9.50-11.22L9.50-11.22L9.03-11.22L9.03-11.22Q8.69-9.76 8.39-8.04L8.39-8.04L8.39-8.04Q8.08-6.32 7.87-4.86L7.87-4.86L7.87-4.86Q7.57-3.14 7.31-1.42L7.31-1.42ZM11.87-26.53L11.87-26.53Q11.40-23.69 10.92-21.16L10.92-21.16L10.92-21.16Q10.45-18.62 9.89-15.74L9.89-15.74L9.89-15.74Q10.58-15.91 11.33-16.53L11.33-16.53L11.33-16.53Q12.08-17.16 12.73-18.17L12.73-18.17L12.73-18.17Q13.37-19.18 13.76-20.51L13.76-20.51L13.76-20.51Q14.15-21.84 14.15-23.31L14.15-23.31L14.15-23.31Q14.15-24.90 13.44-25.71L13.44-25.71L13.44-25.71Q12.73-26.53 11.87-26.53L11.87-26.53ZM23.09-0.86L23.09-0.86Q22.70-0.86 21.59-0.75L21.59-0.75L21.59-0.75Q20.47-0.65 19.26-0.49L19.26-0.49L19.26-0.49Q18.06-0.34 17.09-0.22L17.09-0.22L17.09-0.22Q16.13-0.09 16.04-0.04L16.04-0.04L16.04-0.04Q16.55-1.89 17.07-4.15L17.07-4.15L17.07-4.15Q17.59-6.41 18.12-8.88L18.12-8.88L18.12-8.88Q18.66-11.35 19.16-13.89L19.16-13.89L19.16-13.89Q19.65-16.43 20.12-18.79L20.12-18.79L20.12-18.79Q21.20-24.30 22.23-30.10L22.23-30.10L28.94-31.18L28.94-31.18Q27.82-25.41 26.70-19.87L26.70-19.87L26.70-19.87Q26.23-17.50 25.74-14.96L25.74-14.96L25.74-14.96Q25.24-12.43 24.79-9.93L24.79-9.93L24.79-9.93Q24.34-7.44 23.89-5.10L23.89-5.10L23.89-5.10Q23.44-2.75 23.09-0.86L23.09-0.86ZM43.43-1.72L43.43-1.72Q43.04-1.72 41.80-1.68L41.80-1.68L41.80-1.68Q40.55-1.63 38.85-1.55L38.85-1.55L38.85-1.55Q37.15-1.46 35.17-1.33L35.17-1.33L35.17-1.33Q33.20-1.20 31.30-1.05L31.30-1.05L31.30-1.05Q29.41-0.90 27.80-0.73L27.80-0.73L27.80-0.73Q26.19-0.56 25.24-0.39L25.24-0.39L25.28-6.67L37.50-23.31L37.50-23.31Q36.77-23.31 35.43-23.16L35.43-23.16L35.43-23.16Q34.10-23.01 32.74-22.83L32.74-22.83L32.74-22.83Q31.39-22.66 30.40-22.49L30.40-22.49L29.37-22.40L30.19-29.15L47.77-30.40L46.66-24.47L34.92-7.78L34.92-7.78Q35.78-7.78 37.22-7.87L37.22-7.87L37.22-7.87Q38.66-7.96 40.21-8.04L40.21-8.04L40.21-8.04Q41.75-8.13 43.56-8.26L43.56-8.26L43.43-1.72ZM61.96-1.72L61.96-1.72Q61.58-1.72 60.33-1.68L60.33-1.68L60.33-1.68Q59.08-1.63 57.38-1.55L57.38-1.55L57.38-1.55Q55.69-1.46 53.71-1.33L53.71-1.33L53.71-1.33Q51.73-1.20 49.84-1.05L49.84-1.05L49.84-1.05Q47.95-0.90 46.33-0.73L46.33-0.73L46.33-0.73Q44.72-0.56 43.77-0.39L43.77-0.39L43.82-6.67L56.03-23.31L56.03-23.31Q55.30-23.31 53.97-23.16L53.97-23.16L53.97-23.16Q52.63-23.01 51.28-22.83L51.28-22.83L51.28-22.83Q49.92-22.66 48.93-22.49L48.93-22.49L47.90-22.40L48.72-29.15L66.31-30.40L65.19-24.47L53.45-7.78L53.45-7.78Q54.31-7.78 55.75-7.87L55.75-7.87L55.75-7.87Q57.19-7.96 58.74-8.04L58.74-8.04L58.74-8.04Q60.29-8.13 62.09-8.26L62.09-8.26L61.96-1.72ZM77.79-0.86L77.79-0.86Q76.71-0.69 75.42-0.47L75.42-0.47L75.42-0.47Q74.13-0.26 73.10-0.09L73.10-0.09L73.10-0.09Q73.27-1.51 73.44-2.88L73.44-2.88L73.44-2.88Q73.57-4.08 73.68-5.29L73.68-5.29L73.68-5.29Q73.79-6.49 73.87-7.35L73.87-7.35L70.13-7.35L68.41-1.16L68.41-1.16Q67.47-1.03 66.18-0.88L66.18-0.88L66.18-0.88Q64.89-0.73 63.77-0.60L63.77-0.60L63.77-0.60Q62.39-0.43 61.06-0.26L61.06-0.26L61.06-0.26Q62.78-5.98 64.46-11.52L64.46-11.52L64.46-11.52Q65.15-13.85 65.90-16.38L65.90-16.38L65.90-16.38Q66.65-18.92 67.40-21.44L67.40-21.44L67.40-21.44Q68.16-23.95 68.84-26.27L68.84-26.27L68.84-26.27Q69.53-28.60 70.05-30.53L70.05-30.53L70.05-30.53Q72.97-30.75 76.00-31.05L76.00-31.05L76.00-31.05Q79.03-31.35 81.92-31.86L81.92-31.86L81.92-31.86Q81.79-30.49 81.64-28.44L81.64-28.44L81.64-28.44Q81.49-26.40 81.36-23.99L81.36-23.99L81.36-23.99Q81.23-21.59 81.10-18.96L81.10-18.96L81.10-18.96Q80.97-16.34 80.84-13.80L80.84-13.80L80.84-13.80Q80.63-7.87 80.37-1.20L80.37-1.20L80.37-1.20Q79.08-0.99 77.79-0.86L77.79-0.86ZM73.83-22.45L71.17-11.65L71.17-11.65Q71.34-11.65 71.79-11.67L71.79-11.67L71.79-11.67Q72.24-11.70 72.73-11.72L72.73-11.72L72.73-11.72Q73.23-11.74 73.66-11.76L73.66-11.76L73.66-11.76Q74.09-11.78 74.26-11.83L74.26-11.83L74.26-11.83Q74.26-12.08 74.33-12.71L74.33-12.71L74.33-12.71Q74.39-13.33 74.45-14.13L74.45-14.13L74.45-14.13Q74.52-14.92 74.61-15.87L74.61-15.87L74.61-15.87Q74.69-16.81 74.78-17.72L74.78-17.72L74.78-17.72Q74.95-19.91 75.21-22.45L75.21-22.45L75.47-26.19L74.82-26.14L73.83-22.45ZM87.72-1.76L80.75 0.04L80.75 0.04Q81.92-5.68 82.99-11.14L82.99-11.14L82.99-11.14Q83.38-13.46 83.85-15.97L83.85-15.97L83.85-15.97Q84.32-18.49 84.73-20.96L84.73-20.96L84.73-20.96Q85.14-23.44 85.51-25.74L85.51-25.74L85.51-25.74Q85.87-28.04 86.09-29.93L86.09-29.93L86.09-29.93Q88.54-30.70 91.38-31.07L91.38-31.07L91.38-31.07Q94.21-31.43 97.01-31.43L97.01-31.43L97.01-31.43Q98.69-31.43 99.78-31.05L99.78-31.05L99.78-31.05Q100.88-30.66 101.50-29.95L101.50-29.95L101.50-29.95Q102.13-29.24 102.38-28.29L102.38-28.29L102.38-28.29Q102.64-27.35 102.64-26.19L102.64-26.19L102.64-26.19Q102.64-24.47 102.04-22.81L102.04-22.81L102.04-22.81Q101.44-21.16 100.43-19.67L100.43-19.67L100.43-19.67Q99.42-18.19 98.10-16.96L98.10-16.96L98.10-16.96Q96.79-15.74 95.29-14.96L95.29-14.96L95.29-14.96Q96.06-13.24 96.94-11.20L96.94-11.20L96.94-11.20Q97.83-9.16 98.60-7.31L98.60-7.31L98.60-7.31Q99.46-5.16 100.36-3.01L100.36-3.01L93.70-0.69L93.70-0.69Q92.84-3.66 92.15-6.28L92.15-6.28L92.15-6.28Q91.85-7.35 91.55-8.49L91.55-8.49L91.55-8.49Q91.25-9.63 90.99-10.64L90.99-10.64L90.99-10.64Q90.73-11.65 90.56-12.43L90.56-12.43L90.56-12.43Q90.39-13.20 90.34-13.63L90.34-13.63L89.78-13.46L89.78-13.46Q89.53-12.08 89.16-10.11L89.16-10.11L89.16-10.11Q88.80-8.13 88.49-6.28L88.49-6.28L88.49-6.28Q88.11-4.08 87.72-1.76L87.72-1.76ZM92.24-25.46L90.86-18.62L90.86-18.62Q91.68-18.71 92.86-19.31L92.86-19.31L92.86-19.31Q94.04-19.91 95.12-20.75L95.12-20.75L95.12-20.75Q96.19-21.59 96.97-22.49L96.97-22.49L96.97-22.49Q97.74-23.39 97.74-24.08L97.74-24.08L97.74-24.08Q97.74-24.55 97.44-24.83L97.44-24.83L97.44-24.83Q97.14-25.11 96.60-25.26L96.60-25.26L96.60-25.26Q96.06-25.41 95.42-25.46L95.42-25.46L95.42-25.46Q94.77-25.50 94.08-25.50L94.08-25.50L94.08-25.50Q93.61-25.50 93.12-25.48L93.12-25.48L93.12-25.48Q92.62-25.46 92.24-25.46L92.24-25.46ZM106.47-0.86L106.47-0.86Q106.08-0.86 104.96-0.75L104.96-0.75L104.96-0.75Q103.85-0.65 102.64-0.49L102.64-0.49L102.64-0.49Q101.44-0.34 100.47-0.22L100.47-0.22L100.47-0.22Q99.50-0.09 99.42-0.04L99.42-0.04L99.42-0.04Q99.93-1.89 100.45-4.15L100.45-4.15L100.45-4.15Q100.96-6.41 101.50-8.88L101.50-8.88L101.50-8.88Q102.04-11.35 102.53-13.89L102.53-13.89L102.53-13.89Q103.03-16.43 103.50-18.79L103.50-18.79L103.50-18.79Q104.58-24.30 105.61-30.10L105.61-30.10L112.32-31.18L112.32-31.18Q111.20-25.41 110.08-19.87L110.08-19.87L110.08-19.87Q109.61-17.50 109.11-14.96L109.11-14.96L109.11-14.96Q108.62-12.43 108.17-9.93L108.17-9.93L108.17-9.93Q107.72-7.44 107.26-5.10L107.26-5.10L107.26-5.10Q106.81-2.75 106.47-0.86L106.47-0.86ZM124.10-0.86L124.10-0.86Q123.02-0.69 121.73-0.47L121.73-0.47L121.73-0.47Q120.44-0.26 119.41-0.09L119.41-0.09L119.41-0.09Q119.58-1.51 119.75-2.88L119.75-2.88L119.75-2.88Q119.88-4.08 119.99-5.29L119.99-5.29L119.99-5.29Q120.10-6.49 120.19-7.35L120.19-7.35L116.44-7.35L114.72-1.16L114.72-1.16Q113.78-1.03 112.49-0.88L112.49-0.88L112.49-0.88Q111.20-0.73 110.08-0.60L110.08-0.60L110.08-0.60Q108.70-0.43 107.37-0.26L107.37-0.26L107.37-0.26Q109.09-5.98 110.77-11.52L110.77-11.52L110.77-11.52Q111.46-13.85 112.21-16.38L112.21-16.38L112.21-16.38Q112.96-18.92 113.71-21.44L113.71-21.44L113.71-21.44Q114.47-23.95 115.15-26.27L115.15-26.27L115.15-26.27Q115.84-28.60 116.36-30.53L116.36-30.53L116.36-30.53Q119.28-30.75 122.31-31.05L122.31-31.05L122.31-31.05Q125.34-31.35 128.23-31.86L128.23-31.86L128.23-31.86Q128.10-30.49 127.95-28.44L127.95-28.44L127.95-28.44Q127.80-26.40 127.67-23.99L127.67-23.99L127.67-23.99Q127.54-21.59 127.41-18.96L127.41-18.96L127.41-18.96Q127.28-16.34 127.15-13.80L127.15-13.80L127.15-13.80Q126.94-7.87 126.68-1.20L126.68-1.20L126.68-1.20Q125.39-0.99 124.10-0.86L124.10-0.86ZM120.14-22.45L117.48-11.65L117.48-11.65Q117.65-11.65 118.10-11.67L118.10-11.67L118.10-11.67Q118.55-11.70 119.05-11.72L119.05-11.72L119.05-11.72Q119.54-11.74 119.97-11.76L119.97-11.76L119.97-11.76Q120.40-11.78 120.57-11.83L120.57-11.83L120.57-11.83Q120.57-12.08 120.64-12.71L120.64-12.71L120.64-12.71Q120.70-13.33 120.77-14.13L120.77-14.13L120.77-14.13Q120.83-14.92 120.92-15.87L120.92-15.87L120.92-15.87Q121.00-16.81 121.09-17.72L121.09-17.72L121.09-17.72Q121.26-19.91 121.52-22.45L121.52-22.45L121.78-26.19L121.13-26.14L120.14-22.45Z" fill="url(#editing-outline-gradient)"></path></g></g><style>text {
  font-size: 64px;
  font-family: Arial Black;
  dominant-baseline: central;
  text-anchor: middle;
}</style></svg>